<svg width="1440" height="1024" viewBox="0 0 1440 1024" fill="none" xmlns="http://www.w3.org/2000/svg">
<g clip-path="url(#clip0)">
<rect width="1440" height="1024" fill="#19A1AD"/>
<g clip-path="url(#clip1)">
<path opacity="0.25" d="M863.932 697.931C1054.9 506.965 1364.2 506.648 1554.78 697.224C1745.35 887.8 1745.03 1197.1 1554.07 1388.07C1363.1 1579.03 1053.8 1579.35 863.225 1388.77C672.649 1198.2 672.966 888.898 863.932 697.931Z" fill="url(#paint0_linear)"/>
</g>
<g clip-path="url(#clip2)">
<path opacity="0.5" d="M576.068 -322.068C385.102 -513.035 75.8006 -513.351 -114.775 -322.775C-305.351 -132.199 -305.035 177.102 -114.068 368.068C76.8982 559.034 386.199 559.351 576.775 368.775C767.351 178.199 767.034 -131.102 576.068 -322.068Z" fill="url(#paint1_linear)"/>
</g>
</g>
<defs>
<linearGradient id="paint0_linear" x1="1548.69" y1="1382.69" x2="863.932" y2="697.931" gradientUnits="userSpaceOnUse">
<stop stop-color="#0989B4" stop-opacity="0"/>
<stop offset="0.9994" stop-color="#53FFEE"/>
</linearGradient>
<linearGradient id="paint1_linear" x1="-108.692" y1="362.692" x2="576.068" y2="-322.068" gradientUnits="userSpaceOnUse">
<stop stop-color="#0989B4" stop-opacity="0"/>
<stop offset="0.9994" stop-color="#53FFEE"/>
</linearGradient>
<clipPath id="clip0">
<rect width="1440" height="1024" fill="white"/>
</clipPath>
<clipPath id="clip1">
<rect width="978" height="978" fill="white" transform="translate(720 554)"/>
</clipPath>
<clipPath id="clip2">
<rect width="978" height="978" fill="white" transform="translate(-258 -466)"/>
</clipPath>
</defs>
</svg>
